STARTFONT 2.1
COMMENT 
COMMENT This file has been produced by ttf2bdf written by Subhabrata Biswas
COMMENT 
COMMENT For comments, questions, bug reports, send a mail to
COMMENT                                           subhabrata.biswas@usa.net
COMMENT 
FONT -*-M42_FLIGHT 721-Medium-R-Normal--16-120-96-96-c-24--fontspecific
SIZE 12 96 96
FONTBOUNDINGBOX 32 24 0 -8
STARTPROPERTIES 15
FOUNDRY "Misc"
FAMILY_NAME "M42_FLIGHT 721"
WEIGHT_NAME "Medium"
SLANT "R"
SETWIDTH_NAME "Normal"
PIXEL_SIZE 8
POINT_SIZE 120
RESOLUTION_X 96
RESOLUTION_Y 96
SPACING "C"
CHARSET_ENCODING "fontspecific"
FONT_ASCENT 16
FONT_DESCENT 8
DEFAULT_CHAR 31
COPYRIGHT "You may wish to put your copyright here"
ENDPROPERTIES
CHARS 226
STARTCHAR C0030
ENCODING 30
SWIDTH 500 0
DWIDTH 8 0
BBX 7 14 1 -1
BITMAP
10
10
10
38
38
38
38
7C
7C
7C
7C
FE
FE
FE
ENDCHAR
STARTCHAR C0031
ENCODING 31
SWIDTH 500 0
DWIDTH 8 0
BBX 7 14 1 -1
BITMAP
FE
FE
FE
7C
7C
7C
7C
38
38
38
38
10
10
10
ENDCHAR
STARTCHAR C0032- 
ENCODING 32
SWIDTH 750 0
DWIDTH 12 0
BBX 1 1 0 -1
BITMAP
00
ENDCHAR
STARTCHAR C0033-!
ENCODING 33
SWIDTH 500 0
DWIDTH 8 0
BBX 6 16 0 0
BITMAP
FC
FC
FC
FC
FC
FC
FC
FC
FC
FC
00
00
FC
FC
FC
FC
ENDCHAR
STARTCHAR C0034-"
ENCODING 34
SWIDTH 750 0
DWIDTH 12 0
BBX 10 6 0 10
BITMAP
F3C0
F3C0
F3C0
F3C0
F3C0
F3C0
ENDCHAR
STARTCHAR C0035-#
ENCODING 35
SWIDTH 1125 0
DWIDTH 18 0
BBX 16 16 0 0
BITMAP
3C3C
3C3C
FFFF
FFFF
FFFF
FFFF
3C3C
3C3C
3C3C
3C3C
FFFF
FFFF
FFFF
FFFF
3C3C
3C3C
ENDCHAR
STARTCHAR C0036-$
ENCODING 36
SWIDTH 1125 0
DWIDTH 18 0
BBX 16 16 0 0
BITMAP
3FFF
3FFF
FFFF
FFFF
F3C0
F3C0
FFFC
FFFC
3FFF
3FFF
03CF
03CF
FFFF
FFFF
FFFC
FFFC
ENDCHAR
STARTCHAR C0037-%
ENCODING 37
SWIDTH 1375 0
DWIDTH 22 0
BBX 20 16 0 0
BITMAP
3F03C0
3F03C0
FFCFC0
FFCFC0
F3FF00
F3FF00
FFFFC0
FFFFC0
3FFFF0
3FFFF0
0FFCF0
0FFCF0
3F3FF0
3F3FF0
3C0FC0
3C0FC0
ENDCHAR
STARTCHAR C0038-&
ENCODING 38
SWIDTH 1500 0
DWIDTH 24 0
BBX 22 16 0 0
BITMAP
0FFF00
0FFF00
3FFFC0
3FFFC0
3F0FC0
3F0FC0
3FF000
3FF000
FFFFF0
FFFFF0
FCFFF0
FCFFF0
FFFFFC
FFFFFC
3FFCFC
3FFCFC
ENDCHAR
STARTCHAR C0039-'
ENCODING 39
SWIDTH 375 0
DWIDTH 6 0
BBX 4 6 0 10
BITMAP
F0
F0
F0
F0
F0
F0
ENDCHAR
STARTCHAR C0040-(
ENCODING 40
SWIDTH 625 0
DWIDTH 10 0
BBX 8 16 0 0
BITMAP
3F
3F
FF
FF
F0
F0
F0
F0
F0
F0
F0
F0
FF
FF
3F
3F
ENDCHAR
STARTCHAR C0041-)
ENCODING 41
SWIDTH 625 0
DWIDTH 10 0
BBX 8 16 0 0
BITMAP
FC
FC
FF
FF
0F
0F
0F
0F
0F
0F
0F
0F
FF
FF
FC
FC
ENDCHAR
STARTCHAR C0042-*
ENCODING 42
SWIDTH 1125 0
DWIDTH 18 0
BBX 16 16 0 0
BITMAP
03C0
03C0
F3CF
F3CF
FFFF
FFFF
3FFC
3FFC
3FFC
3FFC
FFFF
FFFF
F3CF
F3CF
03C0
03C0
ENDCHAR
STARTCHAR C0043-+
ENCODING 43
SWIDTH 1125 0
DWIDTH 18 0
BBX 16 16 0 0
BITMAP
03C0
03C0
03C0
03C0
03C0
03C0
FFFF
FFFF
FFFF
FFFF
03C0
03C0
03C0
03C0
03C0
03C0
ENDCHAR
STARTCHAR C0044-,
ENCODING 44
SWIDTH 375 0
DWIDTH 6 0
BBX 4 6 0 -2
BITMAP
F0
F0
F0
F0
30
30
ENDCHAR
STARTCHAR C0045--
ENCODING 45
SWIDTH 1125 0
DWIDTH 18 0
BBX 16 4 0 6
BITMAP
FFFF
FFFF
FFFF
FFFF
ENDCHAR
STARTCHAR C0046-.
ENCODING 46
SWIDTH 375 0
DWIDTH 6 0
BBX 4 4 0 0
BITMAP
F0
F0
F0
F0
ENDCHAR
STARTCHAR C0047-/
ENCODING 47
SWIDTH 750 0
DWIDTH 12 0
BBX 10 16 0 0
BITMAP
03C0
03C0
03C0
03C0
0F00
0F00
0F00
0F00
3C00
3C00
3C00
3C00
F000
F000
F000
F000
ENDCHAR
STARTCHAR C0048-0
ENCODING 48
SWIDTH 1375 0
DWIDTH 22 0
BBX 20 16 0 0
BITMAP
3FFFC0
3FFFC0
FFFFF0
FFFFF0
FC03F0
FC03F0
FC03F0
FC03F0
FC03F0
FC03F0
FC03F0
FC03F0
FFFFF0
FFFFF0
3FFFC0
3FFFC0
ENDCHAR
STARTCHAR C0049-1
ENCODING 49
SWIDTH 750 0
DWIDTH 12 0
BBX 10 16 0 0
BITMAP
0FC0
0FC0
3FC0
3FC0
FFC0
FFC0
FFC0
FFC0
0FC0
0FC0
0FC0
0FC0
0FC0
0FC0
0FC0
0FC0
ENDCHAR
STARTCHAR C0050-2
ENCODING 50
SWIDTH 1375 0
DWIDTH 22 0
BBX 20 16 0 0
BITMAP
FFFFC0
FFFFC0
FFFFF0
FFFFF0
0003F0
0003F0
3FFFF0
3FFFF0
FFFFC0
FFFFC0
FC0000
FC0000
FFFFF0
FFFFF0
FFFFF0
FFFFF0
ENDCHAR
STARTCHAR C0051-3
ENCODING 51
SWIDTH 1375 0
DWIDTH 22 0
BBX 20 16 0 0
BITMAP
3FFFC0
3FFFC0
FFFFF0
FFFFF0
FC03F0
FC03F0
00FFC0
00FFC0
00FFF0
00FFF0
FC03F0
FC03F0
FFFFF0
FFFFF0
3FFFC0
3FFFC0
ENDCHAR
STARTCHAR C0052-4
ENCODING 52
SWIDTH 1375 0
DWIDTH 22 0
BBX 20 16 0 0
BITMAP
00FFC0
00FFC0
03FFC0
03FFC0
0FFFC0
0FFFC0
3FCFC0
3FCFC0
FF0FC0
FF0FC0
FFFFF0
FFFFF0
FFFFF0
FFFFF0
000FC0
000FC0
ENDCHAR
STARTCHAR C0053-5
ENCODING 53
SWIDTH 1375 0
DWIDTH 22 0
BBX 20 16 0 0
BITMAP
FFFFF0
FFFFF0
FFFFF0
FFFFF0
FC0000
FC0000
FFFFC0
FFFFC0
FFFFF0
FFFFF0
0003F0
0003F0
FFFFF0
FFFFF0
FFFFC0
FFFFC0
ENDCHAR
STARTCHAR C0054-6
ENCODING 54
SWIDTH 1375 0
DWIDTH 22 0
BBX 20 16 0 0
BITMAP
3FFFF0
3FFFF0
FFFFF0
FFFFF0
FC0000
FC0000
FFFFC0
FFFFC0
FFFFF0
FFFFF0
FC03F0
FC03F0
FFFFF0
FFFFF0
3FFFC0
3FFFC0
ENDCHAR
STARTCHAR C0055-7
ENCODING 55
SWIDTH 1375 0
DWIDTH 22 0
BBX 20 16 0 0
BITMAP
FFFFF0
FFFFF0
FFFFF0
FFFFF0
000FF0
000FF0
003FC0
003FC0
00FF00
00FF00
03FC00
03FC00
0FF000
0FF000
0FC000
0FC000
ENDCHAR
STARTCHAR C0056-8
ENCODING 56
SWIDTH 1375 0
DWIDTH 22 0
BBX 20 16 0 0
BITMAP
3FFFC0
3FFFC0
FFFFF0
FFFFF0
FC03F0
FC03F0
3FFFC0
3FFFC0
FFFFF0
FFFFF0
FC03F0
FC03F0
FFFFF0
FFFFF0
3FFFC0
3FFFC0
ENDCHAR
STARTCHAR C0057-9
ENCODING 57
SWIDTH 1375 0
DWIDTH 22 0
BBX 20 16 0 0
BITMAP
3FFFC0
3FFFC0
FFFFF0
FFFFF0
FC03F0
FC03F0
FFFFF0
FFFFF0
3FFFF0
3FFFF0
0003F0
0003F0
FFFFF0
FFFFF0
FFFFC0
FFFFC0
ENDCHAR
STARTCHAR C0058-:
ENCODING 58
SWIDTH 375 0
DWIDTH 6 0
BBX 4 12 0 2
BITMAP
F0
F0
F0
F0
00
00
00
00
F0
F0
F0
F0
ENDCHAR
STARTCHAR C0059-;
ENCODING 59
SWIDTH 375 0
DWIDTH 6 0
BBX 4 14 0 0
BITMAP
F0
F0
F0
F0
00
00
00
00
F0
F0
F0
F0
30
30
ENDCHAR
STARTCHAR C0060-<
ENCODING 60
SWIDTH 750 0
DWIDTH 12 0
BBX 10 16 0 0
BITMAP
03C0
03C0
0FC0
0FC0
3F00
3F00
FC00
FC00
FC00
FC00
3F00
3F00
0FC0
0FC0
03C0
03C0
ENDCHAR
STARTCHAR C0061-=
ENCODING 61
SWIDTH 1125 0
DWIDTH 18 0
BBX 16 12 0 2
BITMAP
FFFF
FFFF
FFFF
FFFF
0000
0000
0000
0000
FFFF
FFFF
FFFF
FFFF
ENDCHAR
STARTCHAR C0062->
ENCODING 62
SWIDTH 750 0
DWIDTH 12 0
BBX 10 16 0 0
BITMAP
F000
F000
FC00
FC00
3F00
3F00
0FC0
0FC0
0FC0
0FC0
3F00
3F00
FC00
FC00
F000
F000
ENDCHAR
STARTCHAR C0063-?
ENCODING 63
SWIDTH 1375 0
DWIDTH 22 0
BBX 20 16 0 0
BITMAP
3FFFC0
3FFFC0
FFFFF0
FFFFF0
FC03F0
FC03F0
00FFF0
00FFF0
00FFC0
00FFC0
000000
000000
00FC00
00FC00
00FC00
00FC00
ENDCHAR
STARTCHAR C0064-@
ENCODING 64
SWIDTH 1250 0
DWIDTH 20 0
BBX 18 18 0 -2
BITMAP
0FFC00
0FFC00
3FFF00
3FFF00
FC0FC0
FC0FC0
F0FFC0
F0FFC0
F3FFC0
F3FFC0
F3C3C0
F3C3C0
FFC3C0
FFC3C0
3FFC00
3FFC00
0FFC00
0FFC00
ENDCHAR
STARTCHAR C0065-A
ENCODING 65
SWIDTH 1500 0
DWIDTH 24 0
BBX 22 16 0 0
BITMAP
03FF00
03FF00
03FF00
03FF00
0FCFC0
0FCFC0
0FCFC0
0FCFC0
3F03F0
3F03F0
3FFFF0
3FFFF0
FFFFFC
FFFFFC
FC00FC
FC00FC
ENDCHAR
STARTCHAR C0066-B
ENCODING 66
SWIDTH 1500 0
DWIDTH 24 0
BBX 22 16 0 0
BITMAP
FFFFF0
FFFFF0
FFFFFC
FFFFFC
FC00FC
FC00FC
FFFFF0
FFFFF0
FFFFFC
FFFFFC
FC00FC
FC00FC
FFFFFC
FFFFFC
FFFFF0
FFFFF0
ENDCHAR
STARTCHAR C0067-C
ENCODING 67
SWIDTH 1500 0
DWIDTH 24 0
BBX 22 16 0 0
BITMAP
3FFFF0
3FFFF0
FFFFFC
FFFFFC
FC00FC
FC00FC
FC0000
FC0000
FC0000
FC0000
FC00FC
FC00FC
FFFFFC
FFFFFC
3FFFF0
3FFFF0
ENDCHAR
STARTCHAR C0068-D
ENCODING 68
SWIDTH 1500 0
DWIDTH 24 0
BBX 22 16 0 0
BITMAP
FFFFF0
FFFFF0
FFFFFC
FFFFFC
FC00FC
FC00FC
FC00FC
FC00FC
FC00FC
FC00FC
FC00FC
FC00FC
FFFFFC
FFFFFC
FFFFF0
FFFFF0
ENDCHAR
STARTCHAR C0069-E
ENCODING 69
SWIDTH 1500 0
DWIDTH 24 0
BBX 22 16 0 0
BITMAP
FFFFFC
FFFFFC
FFFFFC
FFFFFC
FC0000
FC0000
FFFFF0
FFFFF0
FFFFF0
FFFFF0
FC0000
FC0000
FFFFFC
FFFFFC
FFFFFC
FFFFFC
ENDCHAR
STARTCHAR C0070-F
ENCODING 70
SWIDTH 1500 0
DWIDTH 24 0
BBX 22 16 0 0
BITMAP
FFFFFC
FFFFFC
FFFFFC
FFFFFC
FC0000
FC0000
FFFFF0
FFFFF0
FFFFF0
FFFFF0
FC0000
FC0000
FC0000
FC0000
FC0000
FC0000
ENDCHAR
STARTCHAR C0071-G
ENCODING 71
SWIDTH 1500 0
DWIDTH 24 0
BBX 22 16 0 0
BITMAP
3FFFFC
3FFFFC
FFFFFC
FFFFFC
FC0000
FC0000
FC3FFC
FC3FFC
FC3FFC
FC3FFC
FC00FC
FC00FC
FFFFFC
FFFFFC
3FFFF0
3FFFF0
ENDCHAR
STARTCHAR C0072-H
ENCODING 72
SWIDTH 1500 0
DWIDTH 24 0
BBX 22 16 0 0
BITMAP
FC00FC
FC00FC
FC00FC
FC00FC
FC00FC
FC00FC
FFFFFC
FFFFFC
FFFFFC
FFFFFC
FC00FC
FC00FC
FC00FC
FC00FC
FC00FC
FC00FC
ENDCHAR
STARTCHAR C0073-I
ENCODING 73
SWIDTH 500 0
DWIDTH 8 0
BBX 6 16 0 0
BITMAP
FC
FC
FC
FC
FC
FC
FC
FC
FC
FC
FC
FC
FC
FC
FC
FC
ENDCHAR
STARTCHAR C0074-J
ENCODING 74
SWIDTH 1500 0
DWIDTH 24 0
BBX 22 16 0 0
BITMAP
0000FC
0000FC
0000FC
0000FC
0000FC
0000FC
0000FC
0000FC
FC00FC
FC00FC
FC00FC
FC00FC
FFFFFC
FFFFFC
3FFFF0
3FFFF0
ENDCHAR
STARTCHAR C0075-K
ENCODING 75
SWIDTH 1500 0
DWIDTH 24 0
BBX 22 16 0 0
BITMAP
FC00FC
FC00FC
FC0FFC
FC0FFC
FCFFC0
FCFFC0
FFFC00
FFFC00
FFFC00
FFFC00
FCFFC0
FCFFC0
FC0FFC
FC0FFC
FC00FC
FC00FC
ENDCHAR
STARTCHAR C0076-L
ENCODING 76
SWIDTH 1500 0
DWIDTH 24 0
BBX 22 16 0 0
BITMAP
FC0000
FC0000
FC0000
FC0000
FC0000
FC0000
FC0000
FC0000
FC0000
FC0000
FC0000
FC0000
FFFFFC
FFFFFC
FFFFFC
FFFFFC
ENDCHAR
STARTCHAR C0077-M
ENCODING 77
SWIDTH 1750 0
DWIDTH 28 0
BBX 26 16 0 0
BITMAP
FFC0FFC0
FFC0FFC0
FFC0FFC0
FFC0FFC0
FFF3FFC0
FFF3FFC0
FFF3FFC0
FFF3FFC0
FCFFCFC0
FCFFCFC0
FCFFCFC0
FCFFCFC0
FC3F0FC0
FC3F0FC0
FC3F0FC0
FC3F0FC0
ENDCHAR
STARTCHAR C0078-N
ENCODING 78
SWIDTH 1500 0
DWIDTH 24 0
BBX 22 16 0 0
BITMAP
FF00FC
FF00FC
FFC0FC
FFC0FC
FFF0FC
FFF0FC
FFFCFC
FFFCFC
FCFFFC
FCFFFC
FC3FFC
FC3FFC
FC0FFC
FC0FFC
FC03FC
FC03FC
ENDCHAR
STARTCHAR C0079-O
ENCODING 79
SWIDTH 1500 0
DWIDTH 24 0
BBX 22 16 0 0
BITMAP
3FFFF0
3FFFF0
FFFFFC
FFFFFC
FC00FC
FC00FC
FC00FC
FC00FC
FC00FC
FC00FC
FC00FC
FC00FC
FFFFFC
FFFFFC
3FFFF0
3FFFF0
ENDCHAR
STARTCHAR C0080-P
ENCODING 80
SWIDTH 1500 0
DWIDTH 24 0
BBX 22 16 0 0
BITMAP
FFFFF0
FFFFF0
FFFFFC
FFFFFC
FC00FC
FC00FC
FC00FC
FC00FC
FFFFFC
FFFFFC
FFFFF0
FFFFF0
FC0000
FC0000
FC0000
FC0000
ENDCHAR
STARTCHAR C0081-Q
ENCODING 81
SWIDTH 1625 0
DWIDTH 26 0
BBX 24 16 0 0
BITMAP
3FFFF0
3FFFF0
FFFFFC
FFFFFC
FC00FC
FC00FC
FC00FC
FC00FC
FC0FFC
FC0FFC
FC0FFC
FC0FFC
FFFFFF
FFFFFF
3FFFFF
3FFFFF
ENDCHAR
STARTCHAR C0082-R
ENCODING 82
SWIDTH 1500 0
DWIDTH 24 0
BBX 22 16 0 0
BITMAP
FFFFF0
FFFFF0
FFFFFC
FFFFFC
FC00FC
FC00FC
FC00FC
FC00FC
FFFFFC
FFFFFC
FFFFF0
FFFFF0
FC00FC
FC00FC
FC00FC
FC00FC
ENDCHAR
STARTCHAR C0083-S
ENCODING 83
SWIDTH 1500 0
DWIDTH 24 0
BBX 22 16 0 0
BITMAP
3FFFFC
3FFFFC
FFFFFC
FFFFFC
FC0000
FC0000
FFFFF0
FFFFF0
3FFFFC
3FFFFC
0000FC
0000FC
FFFFFC
FFFFFC
FFFFF0
FFFFF0
ENDCHAR
STARTCHAR C0084-T
ENCODING 84
SWIDTH 1500 0
DWIDTH 24 0
BBX 22 16 0 0
BITMAP
FFFFFC
FFFFFC
FFFFFC
FFFFFC
00FC00
00FC00
00FC00
00FC00
00FC00
00FC00
00FC00
00FC00
00FC00
00FC00
00FC00
00FC00
ENDCHAR
STARTCHAR C0085-U
ENCODING 85
SWIDTH 1500 0
DWIDTH 24 0
BBX 22 16 0 0
BITMAP
FC00FC
FC00FC
FC00FC
FC00FC
FC00FC
FC00FC
FC00FC
FC00FC
FC00FC
FC00FC
FC00FC
FC00FC
FFFFFC
FFFFFC
3FFFF0
3FFFF0
ENDCHAR
STARTCHAR C0086-V
ENCODING 86
SWIDTH 1500 0
DWIDTH 24 0
BBX 22 16 0 0
BITMAP
FC00FC
FC00FC
FC00FC
FC00FC
3F03F0
3F03F0
3F03F0
3F03F0
0FCFC0
0FCFC0
0FCFC0
0FCFC0
03FF00
03FF00
03FF00
03FF00
ENDCHAR
STARTCHAR C0087-W
ENCODING 87
SWIDTH 2000 0
DWIDTH 32 0
BBX 30 16 0 0
BITMAP
FC0FC0FC
FC0FC0FC
FC0FC0FC
FC0FC0FC
3F3FF3F0
3F3FF3F0
3F3FF3F0
3F3FF3F0
0FFCFFC0
0FFCFFC0
0FFCFFC0
0FFCFFC0
03F03F00
03F03F00
03F03F00
03F03F00
ENDCHAR
STARTCHAR C0088-X
ENCODING 88
SWIDTH 1500 0
DWIDTH 24 0
BBX 22 16 0 0
BITMAP
FC00FC
FC00FC
FF03FC
FF03FC
3FCFF0
3FCFF0
0FFFC0
0FFFC0
0FFFC0
0FFFC0
3FCFF0
3FCFF0
FF03FC
FF03FC
FC00FC
FC00FC
ENDCHAR
STARTCHAR C0089-Y
ENCODING 89
SWIDTH 1500 0
DWIDTH 24 0
BBX 22 16 0 0
BITMAP
FC00FC
FC00FC
FF03FC
FF03FC
3FCFF0
3FCFF0
0FFFC0
0FFFC0
03FF00
03FF00
00FC00
00FC00
00FC00
00FC00
00FC00
00FC00
ENDCHAR
STARTCHAR C0090-Z
ENCODING 90
SWIDTH 1500 0
DWIDTH 24 0
BBX 22 16 0 0
BITMAP
FFFFFC
FFFFFC
FFFFFC
FFFFFC
000FFC
000FFC
00FFC0
00FFC0
0FFC00
0FFC00
FFC000
FFC000
FFFFFC
FFFFFC
FFFFFC
FFFFFC
ENDCHAR
STARTCHAR C0091-[
ENCODING 91
SWIDTH 625 0
DWIDTH 10 0
BBX 8 16 0 0
BITMAP
FF
FF
FF
FF
F0
F0
F0
F0
F0
F0
F0
F0
FF
FF
FF
FF
ENDCHAR
STARTCHAR C0092-\
ENCODING 92
SWIDTH 750 0
DWIDTH 12 0
BBX 10 16 0 0
BITMAP
F000
F000
F000
F000
3C00
3C00
3C00
3C00
0F00
0F00
0F00
0F00
03C0
03C0
03C0
03C0
ENDCHAR
STARTCHAR C0093-]
ENCODING 93
SWIDTH 625 0
DWIDTH 10 0
BBX 8 16 0 0
BITMAP
FF
FF
FF
FF
0F
0F
0F
0F
0F
0F
0F
0F
FF
FF
FF
FF
ENDCHAR
STARTCHAR C0094-^
ENCODING 94
SWIDTH 875 0
DWIDTH 14 0
BBX 12 8 0 8
BITMAP
0F00
0F00
3FC0
3FC0
FFF0
FFF0
F0F0
F0F0
ENDCHAR
STARTCHAR C0095-_
ENCODING 95
SWIDTH 875 0
DWIDTH 14 0
BBX 12 4 0 -2
BITMAP
FFF0
FFF0
FFF0
FFF0
ENDCHAR
STARTCHAR C0096-`
ENCODING 96
SWIDTH 500 0
DWIDTH 8 0
BBX 6 6 0 10
BITMAP
F0
F0
FC
FC
3C
3C
ENDCHAR
STARTCHAR C0097-a
ENCODING 97
SWIDTH 1500 0
DWIDTH 24 0
BBX 22 16 0 0
BITMAP
03FF00
03FF00
03FF00
03FF00
0FCFC0
0FCFC0
0FCFC0
0FCFC0
3F03F0
3F03F0
3FFFF0
3FFFF0
FFFFFC
FFFFFC
FC00FC
FC00FC
ENDCHAR
STARTCHAR C0098-b
ENCODING 98
SWIDTH 1500 0
DWIDTH 24 0
BBX 22 16 0 0
BITMAP
FFFFF0
FFFFF0
FFFFFC
FFFFFC
FC00FC
FC00FC
FFFFF0
FFFFF0
FFFFFC
FFFFFC
FC00FC
FC00FC
FFFFFC
FFFFFC
FFFFF0
FFFFF0
ENDCHAR
STARTCHAR C0099-c
ENCODING 99
SWIDTH 1500 0
DWIDTH 24 0
BBX 22 16 0 0
BITMAP
3FFFF0
3FFFF0
FFFFFC
FFFFFC
FC00FC
FC00FC
FC0000
FC0000
FC0000
FC0000
FC00FC
FC00FC
FFFFFC
FFFFFC
3FFFF0
3FFFF0
ENDCHAR
STARTCHAR C0100-d
ENCODING 100
SWIDTH 1500 0
DWIDTH 24 0
BBX 22 16 0 0
BITMAP
FFFFF0
FFFFF0
FFFFFC
FFFFFC
FC00FC
FC00FC
FC00FC
FC00FC
FC00FC
FC00FC
FC00FC
FC00FC
FFFFFC
FFFFFC
FFFFF0
FFFFF0
ENDCHAR
STARTCHAR C0101-e
ENCODING 101
SWIDTH 1500 0
DWIDTH 24 0
BBX 22 16 0 0
BITMAP
FFFFFC
FFFFFC
FFFFFC
FFFFFC
FC0000
FC0000
FFFFF0
FFFFF0
FFFFF0
FFFFF0
FC0000
FC0000
FFFFFC
FFFFFC
FFFFFC
FFFFFC
ENDCHAR
STARTCHAR C0102-f
ENCODING 102
SWIDTH 1500 0
DWIDTH 24 0
BBX 22 16 0 0
BITMAP
FFFFFC
FFFFFC
FFFFFC
FFFFFC
FC0000
FC0000
FFFFF0
FFFFF0
FFFFF0
FFFFF0
FC0000
FC0000
FC0000
FC0000
FC0000
FC0000
ENDCHAR
STARTCHAR C0103-g
ENCODING 103
SWIDTH 1500 0
DWIDTH 24 0
BBX 22 16 0 0
BITMAP
3FFFFC
3FFFFC
FFFFFC
FFFFFC
FC0000
FC0000
FC3FFC
FC3FFC
FC3FFC
FC3FFC
FC00FC
FC00FC
FFFFFC
FFFFFC
3FFFF0
3FFFF0
ENDCHAR
STARTCHAR C0104-h
ENCODING 104
SWIDTH 1500 0
DWIDTH 24 0
BBX 22 16 0 0
BITMAP
FC00FC
FC00FC
FC00FC
FC00FC
FC00FC
FC00FC
FFFFFC
FFFFFC
FFFFFC
FFFFFC
FC00FC
FC00FC
FC00FC
FC00FC
FC00FC
FC00FC
ENDCHAR
STARTCHAR C0105-i
ENCODING 105
SWIDTH 500 0
DWIDTH 8 0
BBX 6 16 0 0
BITMAP
FC
FC
FC
FC
FC
FC
FC
FC
FC
FC
FC
FC
FC
FC
FC
FC
ENDCHAR
STARTCHAR C0106-j
ENCODING 106
SWIDTH 1500 0
DWIDTH 24 0
BBX 22 16 0 0
BITMAP
0000FC
0000FC
0000FC
0000FC
0000FC
0000FC
0000FC
0000FC
FC00FC
FC00FC
FC00FC
FC00FC
FFFFFC
FFFFFC
3FFFF0
3FFFF0
ENDCHAR
STARTCHAR C0107-k
ENCODING 107
SWIDTH 1500 0
DWIDTH 24 0
BBX 22 16 0 0
BITMAP
FC00FC
FC00FC
FC0FFC
FC0FFC
FCFFC0
FCFFC0
FFFC00
FFFC00
FFFC00
FFFC00
FCFFC0
FCFFC0
FC0FFC
FC0FFC
FC00FC
FC00FC
ENDCHAR
STARTCHAR C0108-l
ENCODING 108
SWIDTH 1500 0
DWIDTH 24 0
BBX 22 16 0 0
BITMAP
FC0000
FC0000
FC0000
FC0000
FC0000
FC0000
FC0000
FC0000
FC0000
FC0000
FC0000
FC0000
FFFFFC
FFFFFC
FFFFFC
FFFFFC
ENDCHAR
STARTCHAR C0109-m
ENCODING 109
SWIDTH 1750 0
DWIDTH 28 0
BBX 26 16 0 0
BITMAP
FFC0FFC0
FFC0FFC0
FFC0FFC0
FFC0FFC0
FFF3FFC0
FFF3FFC0
FFF3FFC0
FFF3FFC0
FCFFCFC0
FCFFCFC0
FCFFCFC0
FCFFCFC0
FC3F0FC0
FC3F0FC0
FC3F0FC0
FC3F0FC0
ENDCHAR
STARTCHAR C0110-n
ENCODING 110
SWIDTH 1500 0
DWIDTH 24 0
BBX 22 16 0 0
BITMAP
FF00FC
FF00FC
FFC0FC
FFC0FC
FFF0FC
FFF0FC
FFFCFC
FFFCFC
FCFFFC
FCFFFC
FC3FFC
FC3FFC
FC0FFC
FC0FFC
FC03FC
FC03FC
ENDCHAR
STARTCHAR C0111-o
ENCODING 111
SWIDTH 1500 0
DWIDTH 24 0
BBX 22 16 0 0
BITMAP
3FFFF0
3FFFF0
FFFFFC
FFFFFC
FC00FC
FC00FC
FC00FC
FC00FC
FC00FC
FC00FC
FC00FC
FC00FC
FFFFFC
FFFFFC
3FFFF0
3FFFF0
ENDCHAR
STARTCHAR C0112-p
ENCODING 112
SWIDTH 1500 0
DWIDTH 24 0
BBX 22 16 0 0
BITMAP
FFFFF0
FFFFF0
FFFFFC
FFFFFC
FC00FC
FC00FC
FC00FC
FC00FC
FFFFFC
FFFFFC
FFFFF0
FFFFF0
FC0000
FC0000
FC0000
FC0000
ENDCHAR
STARTCHAR C0113-q
ENCODING 113
SWIDTH 1625 0
DWIDTH 26 0
BBX 24 16 0 0
BITMAP
3FFFF0
3FFFF0
FFFFFC
FFFFFC
FC00FC
FC00FC
FC00FC
FC00FC
FC0FFC
FC0FFC
FC0FFC
FC0FFC
FFFFFF
FFFFFF
3FFFFF
3FFFFF
ENDCHAR
STARTCHAR C0114-r
ENCODING 114
SWIDTH 1500 0
DWIDTH 24 0
BBX 22 16 0 0
BITMAP
FFFFF0
FFFFF0
FFFFFC
FFFFFC
FC00FC
FC00FC
FC00FC
FC00FC
FFFFFC
FFFFFC
FFFFF0
FFFFF0
FC00FC
FC00FC
FC00FC
FC00FC
ENDCHAR
STARTCHAR C0115-s
ENCODING 115
SWIDTH 1500 0
DWIDTH 24 0
BBX 22 16 0 0
BITMAP
3FFFFC
3FFFFC
FFFFFC
FFFFFC
FC0000
FC0000
FFFFF0
FFFFF0
3FFFFC
3FFFFC
0000FC
0000FC
FFFFFC
FFFFFC
FFFFF0
FFFFF0
ENDCHAR
STARTCHAR C0116-t
ENCODING 116
SWIDTH 1500 0
DWIDTH 24 0
BBX 22 16 0 0
BITMAP
FFFFFC
FFFFFC
FFFFFC
FFFFFC
00FC00
00FC00
00FC00
00FC00
00FC00
00FC00
00FC00
00FC00
00FC00
00FC00
00FC00
00FC00
ENDCHAR
STARTCHAR C0117-u
ENCODING 117
SWIDTH 1500 0
DWIDTH 24 0
BBX 22 16 0 0
BITMAP
FC00FC
FC00FC
FC00FC
FC00FC
FC00FC
FC00FC
FC00FC
FC00FC
FC00FC
FC00FC
FC00FC
FC00FC
FFFFFC
FFFFFC
3FFFF0
3FFFF0
ENDCHAR
STARTCHAR C0118-v
ENCODING 118
SWIDTH 1500 0
DWIDTH 24 0
BBX 22 16 0 0
BITMAP
FC00FC
FC00FC
FC00FC
FC00FC
3F03F0
3F03F0
3F03F0
3F03F0
0FCFC0
0FCFC0
0FCFC0
0FCFC0
03FF00
03FF00
03FF00
03FF00
ENDCHAR
STARTCHAR C0119-w
ENCODING 119
SWIDTH 2000 0
DWIDTH 32 0
BBX 30 16 0 0
BITMAP
FC0FC0FC
FC0FC0FC
FC0FC0FC
FC0FC0FC
3F3FF3F0
3F3FF3F0
3F3FF3F0
3F3FF3F0
0FFCFFC0
0FFCFFC0
0FFCFFC0
0FFCFFC0
03F03F00
03F03F00
03F03F00
03F03F00
ENDCHAR
STARTCHAR C0120-x
ENCODING 120
SWIDTH 1500 0
DWIDTH 24 0
BBX 22 16 0 0
BITMAP
FC00FC
FC00FC
FF03FC
FF03FC
3FCFF0
3FCFF0
0FFFC0
0FFFC0
0FFFC0
0FFFC0
3FCFF0
3FCFF0
FF03FC
FF03FC
FC00FC
FC00FC
ENDCHAR
STARTCHAR C0121-y
ENCODING 121
SWIDTH 1500 0
DWIDTH 24 0
BBX 22 16 0 0
BITMAP
FC00FC
FC00FC
FF03FC
FF03FC
3FCFF0
3FCFF0
0FFFC0
0FFFC0
03FF00
03FF00
00FC00
00FC00
00FC00
00FC00
00FC00
00FC00
ENDCHAR
STARTCHAR C0122-z
ENCODING 122
SWIDTH 1500 0
DWIDTH 24 0
BBX 22 16 0 0
BITMAP
FFFFFC
FFFFFC
FFFFFC
FFFFFC
000FFC
000FFC
00FFC0
00FFC0
0FFC00
0FFC00
FFC000
FFC000
FFFFFC
FFFFFC
FFFFFC
FFFFFC
ENDCHAR
STARTCHAR C0123-{
ENCODING 123
SWIDTH 625 0
DWIDTH 10 0
BBX 8 18 0 -2
BITMAP
0F
0F
3F
3F
3C
3C
3C
3C
F0
F0
3C
3C
3C
3C
3F
3F
0F
0F
ENDCHAR
STARTCHAR C0124-|
ENCODING 124
SWIDTH 375 0
DWIDTH 6 0
BBX 4 16 0 0
BITMAP
F0
F0
F0
F0
F0
F0
F0
F0
F0
F0
F0
F0
F0
F0
F0
F0
ENDCHAR
STARTCHAR C0125-}
ENCODING 125
SWIDTH 625 0
DWIDTH 10 0
BBX 8 18 0 -2
BITMAP
F0
F0
FC
FC
3C
3C
3C
3C
0F
0F
3C
3C
3C
3C
FC
FC
F0
F0
ENDCHAR
STARTCHAR C0126-~
ENCODING 126
SWIDTH 1000 0
DWIDTH 16 0
BBX 14 6 0 6
BITMAP
3F3C
3F3C
FFFC
FFFC
F3F0
F3F0
ENDCHAR
STARTCHAR C0127
ENCODING 127
SWIDTH 500 0
DWIDTH 8 0
BBX 6 11 1 0
BITMAP
FC
84
84
84
84
84
84
84
84
84
FC
ENDCHAR
STARTCHAR C0128
ENCODING 128
SWIDTH 500 0
DWIDTH 8 0
BBX 2 2 3 6
BITMAP
C0
C0
ENDCHAR
STARTCHAR C0129
ENCODING 129
SWIDTH 1375 0
DWIDTH 22 0
BBX 20 16 0 0
BITMAP
3FFFC0
3FFFC0
FFFFF0
FFFFF0
FC03F0
FC03F0
00FFF0
00FFF0
00FFC0
00FFC0
000000
000000
00FC00
00FC00
00FC00
00FC00
ENDCHAR
STARTCHAR C0130
ENCODING 130
SWIDTH 1375 0
DWIDTH 22 0
BBX 20 16 0 0
BITMAP
3FFFC0
3FFFC0
FFFFF0
FFFFF0
FC03F0
FC03F0
00FFF0
00FFF0
00FFC0
00FFC0
000000
000000
00FC00
00FC00
00FC00
00FC00
ENDCHAR
STARTCHAR C0131
ENCODING 131
SWIDTH 1375 0
DWIDTH 22 0
BBX 20 16 0 0
BITMAP
3FFFC0
3FFFC0
FFFFF0
FFFFF0
FC03F0
FC03F0
00FFF0
00FFF0
00FFC0
00FFC0
000000
000000
00FC00
00FC00
00FC00
00FC00
ENDCHAR
STARTCHAR C0132
ENCODING 132
SWIDTH 1375 0
DWIDTH 22 0
BBX 20 16 0 0
BITMAP
3FFFC0
3FFFC0
FFFFF0
FFFFF0
FC03F0
FC03F0
00FFF0
00FFF0
00FFC0
00FFC0
000000
000000
00FC00
00FC00
00FC00
00FC00
ENDCHAR
STARTCHAR C0133
ENCODING 133
SWIDTH 1375 0
DWIDTH 22 0
BBX 20 16 0 0
BITMAP
3FFFC0
3FFFC0
FFFFF0
FFFFF0
FC03F0
FC03F0
00FFF0
00FFF0
00FFC0
00FFC0
000000
000000
00FC00
00FC00
00FC00
00FC00
ENDCHAR
STARTCHAR C0134
ENCODING 134
SWIDTH 1375 0
DWIDTH 22 0
BBX 20 16 0 0
BITMAP
3FFFC0
3FFFC0
FFFFF0
FFFFF0
FC03F0
FC03F0
00FFF0
00FFF0
00FFC0
00FFC0
000000
000000
00FC00
00FC00
00FC00
00FC00
ENDCHAR
STARTCHAR C0135
ENCODING 135
SWIDTH 1375 0
DWIDTH 22 0
BBX 20 16 0 0
BITMAP
3FFFC0
3FFFC0
FFFFF0
FFFFF0
FC03F0
FC03F0
00FFF0
00FFF0
00FFC0
00FFC0
000000
000000
00FC00
00FC00
00FC00
00FC00
ENDCHAR
STARTCHAR C0136
ENCODING 136
SWIDTH 1375 0
DWIDTH 22 0
BBX 20 16 0 0
BITMAP
3FFFC0
3FFFC0
FFFFF0
FFFFF0
FC03F0
FC03F0
00FFF0
00FFF0
00FFC0
00FFC0
000000
000000
00FC00
00FC00
00FC00
00FC00
ENDCHAR
STARTCHAR C0137
ENCODING 137
SWIDTH 1375 0
DWIDTH 22 0
BBX 20 16 0 0
BITMAP
3FFFC0
3FFFC0
FFFFF0
FFFFF0
FC03F0
FC03F0
00FFF0
00FFF0
00FFC0
00FFC0
000000
000000
00FC00
00FC00
00FC00
00FC00
ENDCHAR
STARTCHAR C0138
ENCODING 138
SWIDTH 1375 0
DWIDTH 22 0
BBX 20 16 0 0
BITMAP
3FFFC0
3FFFC0
FFFFF0
FFFFF0
FC03F0
FC03F0
00FFF0
00FFF0
00FFC0
00FFC0
000000
000000
00FC00
00FC00
00FC00
00FC00
ENDCHAR
STARTCHAR C0139
ENCODING 139
SWIDTH 1375 0
DWIDTH 22 0
BBX 20 16 0 0
BITMAP
3FFFC0
3FFFC0
FFFFF0
FFFFF0
FC03F0
FC03F0
00FFF0
00FFF0
00FFC0
00FFC0
000000
000000
00FC00
00FC00
00FC00
00FC00
ENDCHAR
STARTCHAR C0140
ENCODING 140
SWIDTH 1375 0
DWIDTH 22 0
BBX 20 16 0 0
BITMAP
3FFFC0
3FFFC0
FFFFF0
FFFFF0
FC03F0
FC03F0
00FFF0
00FFF0
00FFC0
00FFC0
000000
000000
00FC00
00FC00
00FC00
00FC00
ENDCHAR
STARTCHAR C0141
ENCODING 141
SWIDTH 1375 0
DWIDTH 22 0
BBX 20 16 0 0
BITMAP
3FFFC0
3FFFC0
FFFFF0
FFFFF0
FC03F0
FC03F0
00FFF0
00FFF0
00FFC0
00FFC0
000000
000000
00FC00
00FC00
00FC00
00FC00
ENDCHAR
STARTCHAR C0142
ENCODING 142
SWIDTH 1375 0
DWIDTH 22 0
BBX 20 16 0 0
BITMAP
3FFFC0
3FFFC0
FFFFF0
FFFFF0
FC03F0
FC03F0
00FFF0
00FFF0
00FFC0
00FFC0
000000
000000
00FC00
00FC00
00FC00
00FC00
ENDCHAR
STARTCHAR C0143
ENCODING 143
SWIDTH 1375 0
DWIDTH 22 0
BBX 20 16 0 0
BITMAP
3FFFC0
3FFFC0
FFFFF0
FFFFF0
FC03F0
FC03F0
00FFF0
00FFF0
00FFC0
00FFC0
000000
000000
00FC00
00FC00
00FC00
00FC00
ENDCHAR
STARTCHAR C0144
ENCODING 144
SWIDTH 1375 0
DWIDTH 22 0
BBX 20 16 0 0
BITMAP
3FFFC0
3FFFC0
FFFFF0
FFFFF0
FC03F0
FC03F0
00FFF0
00FFF0
00FFC0
00FFC0
000000
000000
00FC00
00FC00
00FC00
00FC00
ENDCHAR
STARTCHAR C0145
ENCODING 145
SWIDTH 1375 0
DWIDTH 22 0
BBX 20 16 0 0
BITMAP
3FFFC0
3FFFC0
FFFFF0
FFFFF0
FC03F0
FC03F0
00FFF0
00FFF0
00FFC0
00FFC0
000000
000000
00FC00
00FC00
00FC00
00FC00
ENDCHAR
STARTCHAR C0146
ENCODING 146
SWIDTH 1375 0
DWIDTH 22 0
BBX 20 16 0 0
BITMAP
3FFFC0
3FFFC0
FFFFF0
FFFFF0
FC03F0
FC03F0
00FFF0
00FFF0
00FFC0
00FFC0
000000
000000
00FC00
00FC00
00FC00
00FC00
ENDCHAR
STARTCHAR C0147
ENCODING 147
SWIDTH 1375 0
DWIDTH 22 0
BBX 20 16 0 0
BITMAP
3FFFC0
3FFFC0
FFFFF0
FFFFF0
FC03F0
FC03F0
00FFF0
00FFF0
00FFC0
00FFC0
000000
000000
00FC00
00FC00
00FC00
00FC00
ENDCHAR
STARTCHAR C0148
ENCODING 148
SWIDTH 1375 0
DWIDTH 22 0
BBX 20 16 0 0
BITMAP
3FFFC0
3FFFC0
FFFFF0
FFFFF0
FC03F0
FC03F0
00FFF0
00FFF0
00FFC0
00FFC0
000000
000000
00FC00
00FC00
00FC00
00FC00
ENDCHAR
STARTCHAR C0149
ENCODING 149
SWIDTH 1375 0
DWIDTH 22 0
BBX 20 16 0 0
BITMAP
3FFFC0
3FFFC0
FFFFF0
FFFFF0
FC03F0
FC03F0
00FFF0
00FFF0
00FFC0
00FFC0
000000
000000
00FC00
00FC00
00FC00
00FC00
ENDCHAR
STARTCHAR C0150
ENCODING 150
SWIDTH 1375 0
DWIDTH 22 0
BBX 20 16 0 0
BITMAP
3FFFC0
3FFFC0
FFFFF0
FFFFF0
FC03F0
FC03F0
00FFF0
00FFF0
00FFC0
00FFC0
000000
000000
00FC00
00FC00
00FC00
00FC00
ENDCHAR
STARTCHAR C0151
ENCODING 151
SWIDTH 1375 0
DWIDTH 22 0
BBX 20 16 0 0
BITMAP
3FFFC0
3FFFC0
FFFFF0
FFFFF0
FC03F0
FC03F0
00FFF0
00FFF0
00FFC0
00FFC0
000000
000000
00FC00
00FC00
00FC00
00FC00
ENDCHAR
STARTCHAR C0152
ENCODING 152
SWIDTH 1375 0
DWIDTH 22 0
BBX 20 16 0 0
BITMAP
3FFFC0
3FFFC0
FFFFF0
FFFFF0
FC03F0
FC03F0
00FFF0
00FFF0
00FFC0
00FFC0
000000
000000
00FC00
00FC00
00FC00
00FC00
ENDCHAR
STARTCHAR C0153
ENCODING 153
SWIDTH 1375 0
DWIDTH 22 0
BBX 20 16 0 0
BITMAP
3FFFC0
3FFFC0
FFFFF0
FFFFF0
FC03F0
FC03F0
00FFF0
00FFF0
00FFC0
00FFC0
000000
000000
00FC00
00FC00
00FC00
00FC00
ENDCHAR
STARTCHAR C0154
ENCODING 154
SWIDTH 1375 0
DWIDTH 22 0
BBX 20 16 0 0
BITMAP
3FFFC0
3FFFC0
FFFFF0
FFFFF0
FC03F0
FC03F0
00FFF0
00FFF0
00FFC0
00FFC0
000000
000000
00FC00
00FC00
00FC00
00FC00
ENDCHAR
STARTCHAR C0155
ENCODING 155
SWIDTH 1375 0
DWIDTH 22 0
BBX 20 16 0 0
BITMAP
3FFFC0
3FFFC0
FFFFF0
FFFFF0
FC03F0
FC03F0
00FFF0
00FFF0
00FFC0
00FFC0
000000
000000
00FC00
00FC00
00FC00
00FC00
ENDCHAR
STARTCHAR C0156
ENCODING 156
SWIDTH 1375 0
DWIDTH 22 0
BBX 20 16 0 0
BITMAP
3FFFC0
3FFFC0
FFFFF0
FFFFF0
FC03F0
FC03F0
00FFF0
00FFF0
00FFC0
00FFC0
000000
000000
00FC00
00FC00
00FC00
00FC00
ENDCHAR
STARTCHAR C0157
ENCODING 157
SWIDTH 1375 0
DWIDTH 22 0
BBX 20 16 0 0
BITMAP
3FFFC0
3FFFC0
FFFFF0
FFFFF0
FC03F0
FC03F0
00FFF0
00FFF0
00FFC0
00FFC0
000000
000000
00FC00
00FC00
00FC00
00FC00
ENDCHAR
STARTCHAR C0158
ENCODING 158
SWIDTH 1375 0
DWIDTH 22 0
BBX 20 16 0 0
BITMAP
3FFFC0
3FFFC0
FFFFF0
FFFFF0
FC03F0
FC03F0
00FFF0
00FFF0
00FFC0
00FFC0
000000
000000
00FC00
00FC00
00FC00
00FC00
ENDCHAR
STARTCHAR C0159
ENCODING 159
SWIDTH 1375 0
DWIDTH 22 0
BBX 20 16 0 0
BITMAP
3FFFC0
3FFFC0
FFFFF0
FFFFF0
FC03F0
FC03F0
00FFF0
00FFF0
00FFC0
00FFC0
000000
000000
00FC00
00FC00
00FC00
00FC00
ENDCHAR
STARTCHAR C0160
ENCODING 160
SWIDTH 1375 0
DWIDTH 22 0
BBX 20 16 0 0
BITMAP
3FFFC0
3FFFC0
FFFFF0
FFFFF0
FC03F0
FC03F0
00FFF0
00FFF0
00FFC0
00FFC0
000000
000000
00FC00
00FC00
00FC00
00FC00
ENDCHAR
STARTCHAR C0161
ENCODING 161
SWIDTH 1375 0
DWIDTH 22 0
BBX 20 16 0 0
BITMAP
3FFFC0
3FFFC0
FFFFF0
FFFFF0
FC03F0
FC03F0
00FFF0
00FFF0
00FFC0
00FFC0
000000
000000
00FC00
00FC00
00FC00
00FC00
ENDCHAR
STARTCHAR C0162
ENCODING 162
SWIDTH 1375 0
DWIDTH 22 0
BBX 20 16 0 0
BITMAP
3FFFC0
3FFFC0
FFFFF0
FFFFF0
FC03F0
FC03F0
00FFF0
00FFF0
00FFC0
00FFC0
000000
000000
00FC00
00FC00
00FC00
00FC00
ENDCHAR
STARTCHAR C0163
ENCODING 163
SWIDTH 1375 0
DWIDTH 22 0
BBX 20 16 0 0
BITMAP
3FFFC0
3FFFC0
FFFFF0
FFFFF0
FC03F0
FC03F0
00FFF0
00FFF0
00FFC0
00FFC0
000000
000000
00FC00
00FC00
00FC00
00FC00
ENDCHAR
STARTCHAR C0164
ENCODING 164
SWIDTH 1375 0
DWIDTH 22 0
BBX 20 16 0 0
BITMAP
3FFFC0
3FFFC0
FFFFF0
FFFFF0
FC03F0
FC03F0
00FFF0
00FFF0
00FFC0
00FFC0
000000
000000
00FC00
00FC00
00FC00
00FC00
ENDCHAR
STARTCHAR C0165
ENCODING 165
SWIDTH 1375 0
DWIDTH 22 0
BBX 20 16 0 0
BITMAP
3FFFC0
3FFFC0
FFFFF0
FFFFF0
FC03F0
FC03F0
00FFF0
00FFF0
00FFC0
00FFC0
000000
000000
00FC00
00FC00
00FC00
00FC00
ENDCHAR
STARTCHAR C0166
ENCODING 166
SWIDTH 1375 0
DWIDTH 22 0
BBX 20 16 0 0
BITMAP
3FFFC0
3FFFC0
FFFFF0
FFFFF0
FC03F0
FC03F0
00FFF0
00FFF0
00FFC0
00FFC0
000000
000000
00FC00
00FC00
00FC00
00FC00
ENDCHAR
STARTCHAR C0167
ENCODING 167
SWIDTH 1375 0
DWIDTH 22 0
BBX 20 16 0 0
BITMAP
3FFFC0
3FFFC0
FFFFF0
FFFFF0
FC03F0
FC03F0
00FFF0
00FFF0
00FFC0
00FFC0
000000
000000
00FC00
00FC00
00FC00
00FC00
ENDCHAR
STARTCHAR C0168
ENCODING 168
SWIDTH 1375 0
DWIDTH 22 0
BBX 20 16 0 0
BITMAP
3FFFC0
3FFFC0
FFFFF0
FFFFF0
FC03F0
FC03F0
00FFF0
00FFF0
00FFC0
00FFC0
000000
000000
00FC00
00FC00
00FC00
00FC00
ENDCHAR
STARTCHAR C0169
ENCODING 169
SWIDTH 1375 0
DWIDTH 22 0
BBX 20 16 0 0
BITMAP
3FFFC0
3FFFC0
FFFFF0
FFFFF0
FC03F0
FC03F0
00FFF0
00FFF0
00FFC0
00FFC0
000000
000000
00FC00
00FC00
00FC00
00FC00
ENDCHAR
STARTCHAR C0170
ENCODING 170
SWIDTH 1375 0
DWIDTH 22 0
BBX 20 16 0 0
BITMAP
3FFFC0
3FFFC0
FFFFF0
FFFFF0
FC03F0
FC03F0
00FFF0
00FFF0
00FFC0
00FFC0
000000
000000
00FC00
00FC00
00FC00
00FC00
ENDCHAR
STARTCHAR C0171
ENCODING 171
SWIDTH 1375 0
DWIDTH 22 0
BBX 20 16 0 0
BITMAP
3FFFC0
3FFFC0
FFFFF0
FFFFF0
FC03F0
FC03F0
00FFF0
00FFF0
00FFC0
00FFC0
000000
000000
00FC00
00FC00
00FC00
00FC00
ENDCHAR
STARTCHAR C0172
ENCODING 172
SWIDTH 1375 0
DWIDTH 22 0
BBX 20 16 0 0
BITMAP
3FFFC0
3FFFC0
FFFFF0
FFFFF0
FC03F0
FC03F0
00FFF0
00FFF0
00FFC0
00FFC0
000000
000000
00FC00
00FC00
00FC00
00FC00
ENDCHAR
STARTCHAR C0173
ENCODING 173
SWIDTH 1375 0
DWIDTH 22 0
BBX 20 16 0 0
BITMAP
3FFFC0
3FFFC0
FFFFF0
FFFFF0
FC03F0
FC03F0
00FFF0
00FFF0
00FFC0
00FFC0
000000
000000
00FC00
00FC00
00FC00
00FC00
ENDCHAR
STARTCHAR C0174
ENCODING 174
SWIDTH 1375 0
DWIDTH 22 0
BBX 20 16 0 0
BITMAP
3FFFC0
3FFFC0
FFFFF0
FFFFF0
FC03F0
FC03F0
00FFF0
00FFF0
00FFC0
00FFC0
000000
000000
00FC00
00FC00
00FC00
00FC00
ENDCHAR
STARTCHAR C0175
ENCODING 175
SWIDTH 1375 0
DWIDTH 22 0
BBX 20 16 0 0
BITMAP
3FFFC0
3FFFC0
FFFFF0
FFFFF0
FC03F0
FC03F0
00FFF0
00FFF0
00FFC0
00FFC0
000000
000000
00FC00
00FC00
00FC00
00FC00
ENDCHAR
STARTCHAR C0176
ENCODING 176
SWIDTH 1375 0
DWIDTH 22 0
BBX 20 16 0 0
BITMAP
3FFFC0
3FFFC0
FFFFF0
FFFFF0
FC03F0
FC03F0
00FFF0
00FFF0
00FFC0
00FFC0
000000
000000
00FC00
00FC00
00FC00
00FC00
ENDCHAR
STARTCHAR C0177
ENCODING 177
SWIDTH 1375 0
DWIDTH 22 0
BBX 20 16 0 0
BITMAP
3FFFC0
3FFFC0
FFFFF0
FFFFF0
FC03F0
FC03F0
00FFF0
00FFF0
00FFC0
00FFC0
000000
000000
00FC00
00FC00
00FC00
00FC00
ENDCHAR
STARTCHAR C0178
ENCODING 178
SWIDTH 1375 0
DWIDTH 22 0
BBX 20 16 0 0
BITMAP
3FFFC0
3FFFC0
FFFFF0
FFFFF0
FC03F0
FC03F0
00FFF0
00FFF0
00FFC0
00FFC0
000000
000000
00FC00
00FC00
00FC00
00FC00
ENDCHAR
STARTCHAR C0179
ENCODING 179
SWIDTH 1375 0
DWIDTH 22 0
BBX 20 16 0 0
BITMAP
3FFFC0
3FFFC0
FFFFF0
FFFFF0
FC03F0
FC03F0
00FFF0
00FFF0
00FFC0
00FFC0
000000
000000
00FC00
00FC00
00FC00
00FC00
ENDCHAR
STARTCHAR C0180
ENCODING 180
SWIDTH 1375 0
DWIDTH 22 0
BBX 20 16 0 0
BITMAP
3FFFC0
3FFFC0
FFFFF0
FFFFF0
FC03F0
FC03F0
00FFF0
00FFF0
00FFC0
00FFC0
000000
000000
00FC00
00FC00
00FC00
00FC00
ENDCHAR
STARTCHAR C0181
ENCODING 181
SWIDTH 1375 0
DWIDTH 22 0
BBX 20 16 0 0
BITMAP
3FFFC0
3FFFC0
FFFFF0
FFFFF0
FC03F0
FC03F0
00FFF0
00FFF0
00FFC0
00FFC0
000000
000000
00FC00
00FC00
00FC00
00FC00
ENDCHAR
STARTCHAR C0182
ENCODING 182
SWIDTH 1375 0
DWIDTH 22 0
BBX 20 16 0 0
BITMAP
3FFFC0
3FFFC0
FFFFF0
FFFFF0
FC03F0
FC03F0
00FFF0
00FFF0
00FFC0
00FFC0
000000
000000
00FC00
00FC00
00FC00
00FC00
ENDCHAR
STARTCHAR C0183
ENCODING 183
SWIDTH 1375 0
DWIDTH 22 0
BBX 20 16 0 0
BITMAP
3FFFC0
3FFFC0
FFFFF0
FFFFF0
FC03F0
FC03F0
00FFF0
00FFF0
00FFC0
00FFC0
000000
000000
00FC00
00FC00
00FC00
00FC00
ENDCHAR
STARTCHAR C0184
ENCODING 184
SWIDTH 1375 0
DWIDTH 22 0
BBX 20 16 0 0
BITMAP
3FFFC0
3FFFC0
FFFFF0
FFFFF0
FC03F0
FC03F0
00FFF0
00FFF0
00FFC0
00FFC0
000000
000000
00FC00
00FC00
00FC00
00FC00
ENDCHAR
STARTCHAR C0185
ENCODING 185
SWIDTH 1375 0
DWIDTH 22 0
BBX 20 16 0 0
BITMAP
3FFFC0
3FFFC0
FFFFF0
FFFFF0
FC03F0
FC03F0
00FFF0
00FFF0
00FFC0
00FFC0
000000
000000
00FC00
00FC00
00FC00
00FC00
ENDCHAR
STARTCHAR C0186
ENCODING 186
SWIDTH 1375 0
DWIDTH 22 0
BBX 20 16 0 0
BITMAP
3FFFC0
3FFFC0
FFFFF0
FFFFF0
FC03F0
FC03F0
00FFF0
00FFF0
00FFC0
00FFC0
000000
000000
00FC00
00FC00
00FC00
00FC00
ENDCHAR
STARTCHAR C0187
ENCODING 187
SWIDTH 1375 0
DWIDTH 22 0
BBX 20 16 0 0
BITMAP
3FFFC0
3FFFC0
FFFFF0
FFFFF0
FC03F0
FC03F0
00FFF0
00FFF0
00FFC0
00FFC0
000000
000000
00FC00
00FC00
00FC00
00FC00
ENDCHAR
STARTCHAR C0188
ENCODING 188
SWIDTH 1375 0
DWIDTH 22 0
BBX 20 16 0 0
BITMAP
3FFFC0
3FFFC0
FFFFF0
FFFFF0
FC03F0
FC03F0
00FFF0
00FFF0
00FFC0
00FFC0
000000
000000
00FC00
00FC00
00FC00
00FC00
ENDCHAR
STARTCHAR C0189
ENCODING 189
SWIDTH 1375 0
DWIDTH 22 0
BBX 20 16 0 0
BITMAP
3FFFC0
3FFFC0
FFFFF0
FFFFF0
FC03F0
FC03F0
00FFF0
00FFF0
00FFC0
00FFC0
000000
000000
00FC00
00FC00
00FC00
00FC00
ENDCHAR
STARTCHAR C0190
ENCODING 190
SWIDTH 1375 0
DWIDTH 22 0
BBX 20 16 0 0
BITMAP
3FFFC0
3FFFC0
FFFFF0
FFFFF0
FC03F0
FC03F0
00FFF0
00FFF0
00FFC0
00FFC0
000000
000000
00FC00
00FC00
00FC00
00FC00
ENDCHAR
STARTCHAR C0191
ENCODING 191
SWIDTH 1375 0
DWIDTH 22 0
BBX 20 16 0 0
BITMAP
3FFFC0
3FFFC0
FFFFF0
FFFFF0
FC03F0
FC03F0
00FFF0
00FFF0
00FFC0
00FFC0
000000
000000
00FC00
00FC00
00FC00
00FC00
ENDCHAR
STARTCHAR C0192
ENCODING 192
SWIDTH 1375 0
DWIDTH 22 0
BBX 20 16 0 0
BITMAP
3FFFC0
3FFFC0
FFFFF0
FFFFF0
FC03F0
FC03F0
00FFF0
00FFF0
00FFC0
00FFC0
000000
000000
00FC00
00FC00
00FC00
00FC00
ENDCHAR
STARTCHAR C0193
ENCODING 193
SWIDTH 1375 0
DWIDTH 22 0
BBX 20 16 0 0
BITMAP
3FFFC0
3FFFC0
FFFFF0
FFFFF0
FC03F0
FC03F0
00FFF0
00FFF0
00FFC0
00FFC0
000000
000000
00FC00
00FC00
00FC00
00FC00
ENDCHAR
STARTCHAR C0194
ENCODING 194
SWIDTH 1375 0
DWIDTH 22 0
BBX 20 16 0 0
BITMAP
3FFFC0
3FFFC0
FFFFF0
FFFFF0
FC03F0
FC03F0
00FFF0
00FFF0
00FFC0
00FFC0
000000
000000
00FC00
00FC00
00FC00
00FC00
ENDCHAR
STARTCHAR C0195
ENCODING 195
SWIDTH 1375 0
DWIDTH 22 0
BBX 20 16 0 0
BITMAP
3FFFC0
3FFFC0
FFFFF0
FFFFF0
FC03F0
FC03F0
00FFF0
00FFF0
00FFC0
00FFC0
000000
000000
00FC00
00FC00
00FC00
00FC00
ENDCHAR
STARTCHAR C0196
ENCODING 196
SWIDTH 1375 0
DWIDTH 22 0
BBX 20 16 0 0
BITMAP
3FFFC0
3FFFC0
FFFFF0
FFFFF0
FC03F0
FC03F0
00FFF0
00FFF0
00FFC0
00FFC0
000000
000000
00FC00
00FC00
00FC00
00FC00
ENDCHAR
STARTCHAR C0197
ENCODING 197
SWIDTH 1375 0
DWIDTH 22 0
BBX 20 16 0 0
BITMAP
3FFFC0
3FFFC0
FFFFF0
FFFFF0
FC03F0
FC03F0
00FFF0
00FFF0
00FFC0
00FFC0
000000
000000
00FC00
00FC00
00FC00
00FC00
ENDCHAR
STARTCHAR C0198
ENCODING 198
SWIDTH 1375 0
DWIDTH 22 0
BBX 20 16 0 0
BITMAP
3FFFC0
3FFFC0
FFFFF0
FFFFF0
FC03F0
FC03F0
00FFF0
00FFF0
00FFC0
00FFC0
000000
000000
00FC00
00FC00
00FC00
00FC00
ENDCHAR
STARTCHAR C0199
ENCODING 199
SWIDTH 1375 0
DWIDTH 22 0
BBX 20 16 0 0
BITMAP
3FFFC0
3FFFC0
FFFFF0
FFFFF0
FC03F0
FC03F0
00FFF0
00FFF0
00FFC0
00FFC0
000000
000000
00FC00
00FC00
00FC00
00FC00
ENDCHAR
STARTCHAR C0200
ENCODING 200
SWIDTH 1375 0
DWIDTH 22 0
BBX 20 16 0 0
BITMAP
3FFFC0
3FFFC0
FFFFF0
FFFFF0
FC03F0
FC03F0
00FFF0
00FFF0
00FFC0
00FFC0
000000
000000
00FC00
00FC00
00FC00
00FC00
ENDCHAR
STARTCHAR C0201
ENCODING 201
SWIDTH 1375 0
DWIDTH 22 0
BBX 20 16 0 0
BITMAP
3FFFC0
3FFFC0
FFFFF0
FFFFF0
FC03F0
FC03F0
00FFF0
00FFF0
00FFC0
00FFC0
000000
000000
00FC00
00FC00
00FC00
00FC00
ENDCHAR
STARTCHAR C0202
ENCODING 202
SWIDTH 1375 0
DWIDTH 22 0
BBX 20 16 0 0
BITMAP
3FFFC0
3FFFC0
FFFFF0
FFFFF0
FC03F0
FC03F0
00FFF0
00FFF0
00FFC0
00FFC0
000000
000000
00FC00
00FC00
00FC00
00FC00
ENDCHAR
STARTCHAR C0203
ENCODING 203
SWIDTH 1375 0
DWIDTH 22 0
BBX 20 16 0 0
BITMAP
3FFFC0
3FFFC0
FFFFF0
FFFFF0
FC03F0
FC03F0
00FFF0
00FFF0
00FFC0
00FFC0
000000
000000
00FC00
00FC00
00FC00
00FC00
ENDCHAR
STARTCHAR C0204
ENCODING 204
SWIDTH 1375 0
DWIDTH 22 0
BBX 20 16 0 0
BITMAP
3FFFC0
3FFFC0
FFFFF0
FFFFF0
FC03F0
FC03F0
00FFF0
00FFF0
00FFC0
00FFC0
000000
000000
00FC00
00FC00
00FC00
00FC00
ENDCHAR
STARTCHAR C0205
ENCODING 205
SWIDTH 1375 0
DWIDTH 22 0
BBX 20 16 0 0
BITMAP
3FFFC0
3FFFC0
FFFFF0
FFFFF0
FC03F0
FC03F0
00FFF0
00FFF0
00FFC0
00FFC0
000000
000000
00FC00
00FC00
00FC00
00FC00
ENDCHAR
STARTCHAR C0206
ENCODING 206
SWIDTH 1375 0
DWIDTH 22 0
BBX 20 16 0 0
BITMAP
3FFFC0
3FFFC0
FFFFF0
FFFFF0
FC03F0
FC03F0
00FFF0
00FFF0
00FFC0
00FFC0
000000
000000
00FC00
00FC00
00FC00
00FC00
ENDCHAR
STARTCHAR C0207
ENCODING 207
SWIDTH 1375 0
DWIDTH 22 0
BBX 20 16 0 0
BITMAP
3FFFC0
3FFFC0
FFFFF0
FFFFF0
FC03F0
FC03F0
00FFF0
00FFF0
00FFC0
00FFC0
000000
000000
00FC00
00FC00
00FC00
00FC00
ENDCHAR
STARTCHAR C0208
ENCODING 208
SWIDTH 1375 0
DWIDTH 22 0
BBX 20 16 0 0
BITMAP
3FFFC0
3FFFC0
FFFFF0
FFFFF0
FC03F0
FC03F0
00FFF0
00FFF0
00FFC0
00FFC0
000000
000000
00FC00
00FC00
00FC00
00FC00
ENDCHAR
STARTCHAR C0209
ENCODING 209
SWIDTH 1375 0
DWIDTH 22 0
BBX 20 16 0 0
BITMAP
3FFFC0
3FFFC0
FFFFF0
FFFFF0
FC03F0
FC03F0
00FFF0
00FFF0
00FFC0
00FFC0
000000
000000
00FC00
00FC00
00FC00
00FC00
ENDCHAR
STARTCHAR C0210
ENCODING 210
SWIDTH 1375 0
DWIDTH 22 0
BBX 20 16 0 0
BITMAP
3FFFC0
3FFFC0
FFFFF0
FFFFF0
FC03F0
FC03F0
00FFF0
00FFF0
00FFC0
00FFC0
000000
000000
00FC00
00FC00
00FC00
00FC00
ENDCHAR
STARTCHAR C0211
ENCODING 211
SWIDTH 1375 0
DWIDTH 22 0
BBX 20 16 0 0
BITMAP
3FFFC0
3FFFC0
FFFFF0
FFFFF0
FC03F0
FC03F0
00FFF0
00FFF0
00FFC0
00FFC0
000000
000000
00FC00
00FC00
00FC00
00FC00
ENDCHAR
STARTCHAR C0212
ENCODING 212
SWIDTH 1375 0
DWIDTH 22 0
BBX 20 16 0 0
BITMAP
3FFFC0
3FFFC0
FFFFF0
FFFFF0
FC03F0
FC03F0
00FFF0
00FFF0
00FFC0
00FFC0
000000
000000
00FC00
00FC00
00FC00
00FC00
ENDCHAR
STARTCHAR C0213
ENCODING 213
SWIDTH 1375 0
DWIDTH 22 0
BBX 20 16 0 0
BITMAP
3FFFC0
3FFFC0
FFFFF0
FFFFF0
FC03F0
FC03F0
00FFF0
00FFF0
00FFC0
00FFC0
000000
000000
00FC00
00FC00
00FC00
00FC00
ENDCHAR
STARTCHAR C0214
ENCODING 214
SWIDTH 1375 0
DWIDTH 22 0
BBX 20 16 0 0
BITMAP
3FFFC0
3FFFC0
FFFFF0
FFFFF0
FC03F0
FC03F0
00FFF0
00FFF0
00FFC0
00FFC0
000000
000000
00FC00
00FC00
00FC00
00FC00
ENDCHAR
STARTCHAR C0215
ENCODING 215
SWIDTH 1375 0
DWIDTH 22 0
BBX 20 16 0 0
BITMAP
3FFFC0
3FFFC0
FFFFF0
FFFFF0
FC03F0
FC03F0
00FFF0
00FFF0
00FFC0
00FFC0
000000
000000
00FC00
00FC00
00FC00
00FC00
ENDCHAR
STARTCHAR C0216
ENCODING 216
SWIDTH 1375 0
DWIDTH 22 0
BBX 20 16 0 0
BITMAP
3FFFC0
3FFFC0
FFFFF0
FFFFF0
FC03F0
FC03F0
00FFF0
00FFF0
00FFC0
00FFC0
000000
000000
00FC00
00FC00
00FC00
00FC00
ENDCHAR
STARTCHAR C0217
ENCODING 217
SWIDTH 1375 0
DWIDTH 22 0
BBX 20 16 0 0
BITMAP
3FFFC0
3FFFC0
FFFFF0
FFFFF0
FC03F0
FC03F0
00FFF0
00FFF0
00FFC0
00FFC0
000000
000000
00FC00
00FC00
00FC00
00FC00
ENDCHAR
STARTCHAR C0218
ENCODING 218
SWIDTH 1375 0
DWIDTH 22 0
BBX 20 16 0 0
BITMAP
3FFFC0
3FFFC0
FFFFF0
FFFFF0
FC03F0
FC03F0
00FFF0
00FFF0
00FFC0
00FFC0
000000
000000
00FC00
00FC00
00FC00
00FC00
ENDCHAR
STARTCHAR C0219
ENCODING 219
SWIDTH 1375 0
DWIDTH 22 0
BBX 20 16 0 0
BITMAP
3FFFC0
3FFFC0
FFFFF0
FFFFF0
FC03F0
FC03F0
00FFF0
00FFF0
00FFC0
00FFC0
000000
000000
00FC00
00FC00
00FC00
00FC00
ENDCHAR
STARTCHAR C0220
ENCODING 220
SWIDTH 1375 0
DWIDTH 22 0
BBX 20 16 0 0
BITMAP
3FFFC0
3FFFC0
FFFFF0
FFFFF0
FC03F0
FC03F0
00FFF0
00FFF0
00FFC0
00FFC0
000000
000000
00FC00
00FC00
00FC00
00FC00
ENDCHAR
STARTCHAR C0221
ENCODING 221
SWIDTH 1375 0
DWIDTH 22 0
BBX 20 16 0 0
BITMAP
3FFFC0
3FFFC0
FFFFF0
FFFFF0
FC03F0
FC03F0
00FFF0
00FFF0
00FFC0
00FFC0
000000
000000
00FC00
00FC00
00FC00
00FC00
ENDCHAR
STARTCHAR C0222
ENCODING 222
SWIDTH 1375 0
DWIDTH 22 0
BBX 20 16 0 0
BITMAP
3FFFC0
3FFFC0
FFFFF0
FFFFF0
FC03F0
FC03F0
00FFF0
00FFF0
00FFC0
00FFC0
000000
000000
00FC00
00FC00
00FC00
00FC00
ENDCHAR
STARTCHAR C0223
ENCODING 223
SWIDTH 1375 0
DWIDTH 22 0
BBX 20 16 0 0
BITMAP
3FFFC0
3FFFC0
FFFFF0
FFFFF0
FC03F0
FC03F0
00FFF0
00FFF0
00FFC0
00FFC0
000000
000000
00FC00
00FC00
00FC00
00FC00
ENDCHAR
STARTCHAR C0224
ENCODING 224
SWIDTH 1375 0
DWIDTH 22 0
BBX 20 16 0 0
BITMAP
3FFFC0
3FFFC0
FFFFF0
FFFFF0
FC03F0
FC03F0
00FFF0
00FFF0
00FFC0
00FFC0
000000
000000
00FC00
00FC00
00FC00
00FC00
ENDCHAR
STARTCHAR C0225
ENCODING 225
SWIDTH 1375 0
DWIDTH 22 0
BBX 20 16 0 0
BITMAP
3FFFC0
3FFFC0
FFFFF0
FFFFF0
FC03F0
FC03F0
00FFF0
00FFF0
00FFC0
00FFC0
000000
000000
00FC00
00FC00
00FC00
00FC00
ENDCHAR
STARTCHAR C0226
ENCODING 226
SWIDTH 1375 0
DWIDTH 22 0
BBX 20 16 0 0
BITMAP
3FFFC0
3FFFC0
FFFFF0
FFFFF0
FC03F0
FC03F0
00FFF0
00FFF0
00FFC0
00FFC0
000000
000000
00FC00
00FC00
00FC00
00FC00
ENDCHAR
STARTCHAR C0227
ENCODING 227
SWIDTH 1375 0
DWIDTH 22 0
BBX 20 16 0 0
BITMAP
3FFFC0
3FFFC0
FFFFF0
FFFFF0
FC03F0
FC03F0
00FFF0
00FFF0
00FFC0
00FFC0
000000
000000
00FC00
00FC00
00FC00
00FC00
ENDCHAR
STARTCHAR C0228
ENCODING 228
SWIDTH 1375 0
DWIDTH 22 0
BBX 20 16 0 0
BITMAP
3FFFC0
3FFFC0
FFFFF0
FFFFF0
FC03F0
FC03F0
00FFF0
00FFF0
00FFC0
00FFC0
000000
000000
00FC00
00FC00
00FC00
00FC00
ENDCHAR
STARTCHAR C0229
ENCODING 229
SWIDTH 1375 0
DWIDTH 22 0
BBX 20 16 0 0
BITMAP
3FFFC0
3FFFC0
FFFFF0
FFFFF0
FC03F0
FC03F0
00FFF0
00FFF0
00FFC0
00FFC0
000000
000000
00FC00
00FC00
00FC00
00FC00
ENDCHAR
STARTCHAR C0230
ENCODING 230
SWIDTH 1375 0
DWIDTH 22 0
BBX 20 16 0 0
BITMAP
3FFFC0
3FFFC0
FFFFF0
FFFFF0
FC03F0
FC03F0
00FFF0
00FFF0
00FFC0
00FFC0
000000
000000
00FC00
00FC00
00FC00
00FC00
ENDCHAR
STARTCHAR C0231
ENCODING 231
SWIDTH 1375 0
DWIDTH 22 0
BBX 20 16 0 0
BITMAP
3FFFC0
3FFFC0
FFFFF0
FFFFF0
FC03F0
FC03F0
00FFF0
00FFF0
00FFC0
00FFC0
000000
000000
00FC00
00FC00
00FC00
00FC00
ENDCHAR
STARTCHAR C0232
ENCODING 232
SWIDTH 1375 0
DWIDTH 22 0
BBX 20 16 0 0
BITMAP
3FFFC0
3FFFC0
FFFFF0
FFFFF0
FC03F0
FC03F0
00FFF0
00FFF0
00FFC0
00FFC0
000000
000000
00FC00
00FC00
00FC00
00FC00
ENDCHAR
STARTCHAR C0233
ENCODING 233
SWIDTH 1375 0
DWIDTH 22 0
BBX 20 16 0 0
BITMAP
3FFFC0
3FFFC0
FFFFF0
FFFFF0
FC03F0
FC03F0
00FFF0
00FFF0
00FFC0
00FFC0
000000
000000
00FC00
00FC00
00FC00
00FC00
ENDCHAR
STARTCHAR C0234
ENCODING 234
SWIDTH 1375 0
DWIDTH 22 0
BBX 20 16 0 0
BITMAP
3FFFC0
3FFFC0
FFFFF0
FFFFF0
FC03F0
FC03F0
00FFF0
00FFF0
00FFC0
00FFC0
000000
000000
00FC00
00FC00
00FC00
00FC00
ENDCHAR
STARTCHAR C0235
ENCODING 235
SWIDTH 1375 0
DWIDTH 22 0
BBX 20 16 0 0
BITMAP
3FFFC0
3FFFC0
FFFFF0
FFFFF0
FC03F0
FC03F0
00FFF0
00FFF0
00FFC0
00FFC0
000000
000000
00FC00
00FC00
00FC00
00FC00
ENDCHAR
STARTCHAR C0236
ENCODING 236
SWIDTH 1375 0
DWIDTH 22 0
BBX 20 16 0 0
BITMAP
3FFFC0
3FFFC0
FFFFF0
FFFFF0
FC03F0
FC03F0
00FFF0
00FFF0
00FFC0
00FFC0
000000
000000
00FC00
00FC00
00FC00
00FC00
ENDCHAR
STARTCHAR C0237
ENCODING 237
SWIDTH 1375 0
DWIDTH 22 0
BBX 20 16 0 0
BITMAP
3FFFC0
3FFFC0
FFFFF0
FFFFF0
FC03F0
FC03F0
00FFF0
00FFF0
00FFC0
00FFC0
000000
000000
00FC00
00FC00
00FC00
00FC00
ENDCHAR
STARTCHAR C0238
ENCODING 238
SWIDTH 1375 0
DWIDTH 22 0
BBX 20 16 0 0
BITMAP
3FFFC0
3FFFC0
FFFFF0
FFFFF0
FC03F0
FC03F0
00FFF0
00FFF0
00FFC0
00FFC0
000000
000000
00FC00
00FC00
00FC00
00FC00
ENDCHAR
STARTCHAR C0239
ENCODING 239
SWIDTH 1375 0
DWIDTH 22 0
BBX 20 16 0 0
BITMAP
3FFFC0
3FFFC0
FFFFF0
FFFFF0
FC03F0
FC03F0
00FFF0
00FFF0
00FFC0
00FFC0
000000
000000
00FC00
00FC00
00FC00
00FC00
ENDCHAR
STARTCHAR C0240
ENCODING 240
SWIDTH 1375 0
DWIDTH 22 0
BBX 20 16 0 0
BITMAP
3FFFC0
3FFFC0
FFFFF0
FFFFF0
FC03F0
FC03F0
00FFF0
00FFF0
00FFC0
00FFC0
000000
000000
00FC00
00FC00
00FC00
00FC00
ENDCHAR
STARTCHAR C0241
ENCODING 241
SWIDTH 1375 0
DWIDTH 22 0
BBX 20 16 0 0
BITMAP
3FFFC0
3FFFC0
FFFFF0
FFFFF0
FC03F0
FC03F0
00FFF0
00FFF0
00FFC0
00FFC0
000000
000000
00FC00
00FC00
00FC00
00FC00
ENDCHAR
STARTCHAR C0242
ENCODING 242
SWIDTH 1375 0
DWIDTH 22 0
BBX 20 16 0 0
BITMAP
3FFFC0
3FFFC0
FFFFF0
FFFFF0
FC03F0
FC03F0
00FFF0
00FFF0
00FFC0
00FFC0
000000
000000
00FC00
00FC00
00FC00
00FC00
ENDCHAR
STARTCHAR C0243
ENCODING 243
SWIDTH 1375 0
DWIDTH 22 0
BBX 20 16 0 0
BITMAP
3FFFC0
3FFFC0
FFFFF0
FFFFF0
FC03F0
FC03F0
00FFF0
00FFF0
00FFC0
00FFC0
000000
000000
00FC00
00FC00
00FC00
00FC00
ENDCHAR
STARTCHAR C0244
ENCODING 244
SWIDTH 1375 0
DWIDTH 22 0
BBX 20 16 0 0
BITMAP
3FFFC0
3FFFC0
FFFFF0
FFFFF0
FC03F0
FC03F0
00FFF0
00FFF0
00FFC0
00FFC0
000000
000000
00FC00
00FC00
00FC00
00FC00
ENDCHAR
STARTCHAR C0245
ENCODING 245
SWIDTH 1375 0
DWIDTH 22 0
BBX 20 16 0 0
BITMAP
3FFFC0
3FFFC0
FFFFF0
FFFFF0
FC03F0
FC03F0
00FFF0
00FFF0
00FFC0
00FFC0
000000
000000
00FC00
00FC00
00FC00
00FC00
ENDCHAR
STARTCHAR C0246
ENCODING 246
SWIDTH 1375 0
DWIDTH 22 0
BBX 20 16 0 0
BITMAP
3FFFC0
3FFFC0
FFFFF0
FFFFF0
FC03F0
FC03F0
00FFF0
00FFF0
00FFC0
00FFC0
000000
000000
00FC00
00FC00
00FC00
00FC00
ENDCHAR
STARTCHAR C0247
ENCODING 247
SWIDTH 1375 0
DWIDTH 22 0
BBX 20 16 0 0
BITMAP
3FFFC0
3FFFC0
FFFFF0
FFFFF0
FC03F0
FC03F0
00FFF0
00FFF0
00FFC0
00FFC0
000000
000000
00FC00
00FC00
00FC00
00FC00
ENDCHAR
STARTCHAR C0248
ENCODING 248
SWIDTH 1375 0
DWIDTH 22 0
BBX 20 16 0 0
BITMAP
3FFFC0
3FFFC0
FFFFF0
FFFFF0
FC03F0
FC03F0
00FFF0
00FFF0
00FFC0
00FFC0
000000
000000
00FC00
00FC00
00FC00
00FC00
ENDCHAR
STARTCHAR C0249
ENCODING 249
SWIDTH 1375 0
DWIDTH 22 0
BBX 20 16 0 0
BITMAP
3FFFC0
3FFFC0
FFFFF0
FFFFF0
FC03F0
FC03F0
00FFF0
00FFF0
00FFC0
00FFC0
000000
000000
00FC00
00FC00
00FC00
00FC00
ENDCHAR
STARTCHAR C0250
ENCODING 250
SWIDTH 1375 0
DWIDTH 22 0
BBX 20 16 0 0
BITMAP
3FFFC0
3FFFC0
FFFFF0
FFFFF0
FC03F0
FC03F0
00FFF0
00FFF0
00FFC0
00FFC0
000000
000000
00FC00
00FC00
00FC00
00FC00
ENDCHAR
STARTCHAR C0251
ENCODING 251
SWIDTH 1375 0
DWIDTH 22 0
BBX 20 16 0 0
BITMAP
3FFFC0
3FFFC0
FFFFF0
FFFFF0
FC03F0
FC03F0
00FFF0
00FFF0
00FFC0
00FFC0
000000
000000
00FC00
00FC00
00FC00
00FC00
ENDCHAR
STARTCHAR C0252
ENCODING 252
SWIDTH 1375 0
DWIDTH 22 0
BBX 20 16 0 0
BITMAP
3FFFC0
3FFFC0
FFFFF0
FFFFF0
FC03F0
FC03F0
00FFF0
00FFF0
00FFC0
00FFC0
000000
000000
00FC00
00FC00
00FC00
00FC00
ENDCHAR
STARTCHAR C0253
ENCODING 253
SWIDTH 1375 0
DWIDTH 22 0
BBX 20 16 0 0
BITMAP
3FFFC0
3FFFC0
FFFFF0
FFFFF0
FC03F0
FC03F0
00FFF0
00FFF0
00FFC0
00FFC0
000000
000000
00FC00
00FC00
00FC00
00FC00
ENDCHAR
STARTCHAR C0254
ENCODING 254
SWIDTH 1375 0
DWIDTH 22 0
BBX 20 16 0 0
BITMAP
3FFFC0
3FFFC0
FFFFF0
FFFFF0
FC03F0
FC03F0
00FFF0
00FFF0
00FFC0
00FFC0
000000
000000
00FC00
00FC00
00FC00
00FC00
ENDCHAR
STARTCHAR C0255
ENCODING 255
SWIDTH 500 0
DWIDTH 8 0
BBX 2 2 3 6
BITMAP
C0
C0
ENDCHAR
ENDFONT

